<svg width="25" height="25" viewBox="0 0 25 25" fill="none" xmlns="http://www.w3.org/2000/svg">
<path fill-rule="evenodd" clip-rule="evenodd" d="M12.4999 13.1414L21.554 8.24709V7.55208C21.554 6.42597 20.6572 5.52917 19.5311 5.52917H5.46862C4.34251 5.52917 3.4457 6.42597 3.4457 7.55208V8.24709L12.4999 13.1414ZM12.2236 14.3138L3.4457 9.5685V17.4479C3.4457 18.574 4.34251 19.4708 5.46862 19.4708H19.5311C20.6572 19.4708 21.554 18.574 21.554 17.4479V9.5685L12.7761 14.3138C12.6912 14.3596 12.5963 14.3836 12.4999 14.3836C12.4034 14.3836 12.3085 14.3596 12.2236 14.3138ZM2.2832 7.55208C2.2832 5.80215 3.71869 4.36666 5.46862 4.36666H19.5311C21.281 4.36666 22.7165 5.80215 22.7165 7.55208V17.4479C22.7165 19.1978 21.281 20.6333 19.5311 20.6333H5.46862C3.71869 20.6333 2.2832 19.1978 2.2832 17.4479V7.55208Z" fill="#B6B6B6"/>
</svg>
