<svg width="19" height="19" viewBox="0 0 19 19" fill="none" xmlns="http://www.w3.org/2000/svg">
<path d="M4.22146 0.15625C3.84524 0.15625 3.47464 0.291016 3.1658 0.538086L3.12088 0.560547L3.09841 0.583008L0.85232 2.89648L0.874781 2.91895C0.1813 3.55908 -0.0320794 4.51648 0.268336 5.34473C0.271143 5.35034 0.265528 5.36157 0.268336 5.36719C0.877589 7.11072 2.43582 10.477 5.47927 13.5205C8.53396 16.5752 11.9452 18.0717 13.6326 18.7314H13.6551C14.5282 19.0234 15.4744 18.8157 16.1482 18.2373L18.4168 15.9687C19.012 15.3735 19.012 14.3403 18.4168 13.7451L15.4969 10.8252L15.4744 10.7803C14.8792 10.1851 13.8235 10.1851 13.2283 10.7803L11.7908 12.2178C11.2714 11.9679 10.0332 11.3278 8.84841 10.1963C7.67202 9.07324 7.07119 7.78174 6.84939 7.27637L8.28689 5.83887C8.89053 5.23523 8.90176 4.2301 8.26443 3.6377L8.28689 3.61523L8.21951 3.54785L5.34451 0.583008L5.32205 0.560547L5.27713 0.538086C4.96829 0.291016 4.59768 0.15625 4.22146 0.15625ZM4.22146 1.59375C4.27481 1.59375 4.32815 1.61902 4.37869 1.66113L7.25369 4.60352L7.32107 4.6709C7.31546 4.66528 7.36318 4.74109 7.27615 4.82812L5.47927 6.625L5.14236 6.93945L5.29959 7.38867C5.29959 7.38867 6.12503 9.59827 7.86013 11.252L8.01736 11.3867C9.68789 12.9113 11.656 13.7451 11.656 13.7451L12.1053 13.9473L14.239 11.8135C14.3626 11.6899 14.3401 11.6899 14.4636 11.8135L17.406 14.7559C17.5296 14.8794 17.5296 14.8345 17.406 14.958L15.2049 17.1592C14.8736 17.4427 14.5226 17.5017 14.1043 17.3613C12.4759 16.7212 9.31167 15.3314 6.49002 12.5098C3.6459 9.66565 2.16067 6.4397 1.61599 4.87305C1.50649 4.58105 1.58511 4.14868 1.8406 3.92969L1.88552 3.88477L4.06423 1.66113C4.11477 1.61902 4.16812 1.59375 4.22146 1.59375Z" fill="#B6B6B6"/>
</svg>
