<svg width="21" height="22" viewBox="0 0 21 22" fill="none" xmlns="http://www.w3.org/2000/svg">
<path fill-rule="evenodd" clip-rule="evenodd" d="M16.5115 3.93349L16.5115 3.93343L18.7371 6.16781L16.5115 3.93349ZM17.0911 6.65657L17.6707 7.23844L17.6707 7.23841L17.0911 6.65657ZM5.80109 9.47282L5.80115 9.47276L8.6062 12.2891L5.80109 9.47282ZM15.2704 6.58194L16.2348 5.58437L15.6568 5.00407L16.5115 4.14598L18.5253 6.16781L17.6707 7.02589L17.0927 6.4456L16.0989 7.41391L16.1875 7.52049C17.3457 8.91477 18.0539 10.7112 18.0539 12.6615C18.0539 17.0945 14.4576 20.7042 10.0435 20.7042C5.62948 20.7042 2.0332 17.0945 2.0332 12.6615C2.0332 8.22844 5.62948 4.61875 10.0435 4.61875C11.9856 4.61875 13.7746 5.32949 15.1633 6.49228L15.2704 6.58194ZM8.70983 12.6615C8.70983 12.5447 8.72306 12.4328 8.75111 12.3278L8.7734 12.2444L6.0128 9.47282L6.86749 8.61473L9.62768 11.3859L9.71162 11.3633C9.81604 11.3351 9.92735 11.3219 10.0435 11.3219C10.7802 11.3219 11.3772 11.9204 11.3772 12.6615C11.3772 13.4025 10.7802 14.001 10.0435 14.001C9.30684 14.001 8.70983 13.4025 8.70983 12.6615ZM12.1191 2.38437V3.57396H7.96799V2.38437H12.1191ZM16.8702 12.6615C16.8702 8.86976 13.8217 5.80833 10.0435 5.80833C6.26538 5.80833 3.2169 8.86976 3.2169 12.6615C3.2169 16.4532 6.26538 19.5146 10.0435 19.5146C13.8217 19.5146 16.8702 16.4532 16.8702 12.6615Z" fill="#B6B6B6"/>
</svg>
