<svg width="143" height="143" viewBox="0 0 143 143" fill="none" xmlns="http://www.w3.org/2000/svg">
<path fill-rule="evenodd" clip-rule="evenodd" d="M75.854 105.014L75.8544 105.013C75.8569 105.008 75.8594 105.003 75.862 104.998C75.8593 105.003 75.8566 105.009 75.854 105.014ZM112.891 105.017L112.893 105.013C112.895 105.008 112.898 105.003 112.9 104.998C112.897 105.004 112.894 105.011 112.891 105.017ZM113.699 47.7789C113.699 47.7788 113.699 47.7788 113.699 47.7788C113.698 47.7768 113.698 47.7747 113.697 47.7727C113.698 47.7747 113.698 47.7768 113.699 47.7789ZM112.995 46.0408C112.995 46.0408 112.995 46.0408 112.995 46.0408C112.993 46.0367 112.991 46.0326 112.989 46.0284C112.991 46.0326 112.993 46.0367 112.995 46.0408ZM43.7791 42.0317L44.5282 43.0814C47.1375 48.3872 47.1614 54.4547 44.6001 59.7744L44.4892 59.8853L39.8387 68.7877L39.8315 68.8021C37.6028 73.241 37.6028 77.6039 39.8315 82.0428L39.8387 82.0572L44.9084 91.762H44.9713C47.0139 96.5687 47.0139 101.989 44.9713 106.796H44.8971L37.0377 122.146L33.3679 120.18L42.2011 103.066H41.7133C42.7005 99.5768 42.3217 96.0694 40.5769 92.5941L40.5697 92.5798L36.069 83.9642C33.3529 78.5354 33.3553 72.2936 36.0762 66.8662L36.2883 66.4432V66.3388L40.5669 58.2706L40.5769 58.2507C42.8056 53.8118 42.8056 49.3203 40.5769 44.8814L40.5374 44.8028L39.7533 43.5329L35.09 33.9976L29.8652 36.4622L32.0925 21.317L44.9441 29.3493L38.9289 32.2532L43.7791 42.0317ZM81.9304 44.0492H82.0105C84.1694 49.1162 84.0454 54.7755 81.6385 59.7744L81.5277 59.8853L76.8772 68.7877L76.8699 68.8021C74.6413 73.241 74.6413 77.6039 76.8699 82.0428L76.8772 82.0572L81.9468 91.762H82.0098C84.0524 96.5687 84.0524 101.989 82.0098 106.796H81.9356L74.0761 122.146L70.4064 120.18L79.2395 103.066H78.7517C79.739 99.5768 79.3602 96.0694 77.6154 92.5941L77.6081 92.5798L73.1075 83.9642C70.3913 78.5354 70.3937 72.2936 73.1147 66.8662L73.3268 66.4432V66.3388L77.6054 58.2706L77.6154 58.2507C79.3602 54.7755 79.739 51.268 78.7517 47.7788H79.2541L72.0835 34.0189L66.9037 36.4622L69.1309 21.317L81.9826 29.3493L75.9509 32.2611L81.9304 44.0492ZM118.969 44.0492H119.049C121.208 49.1162 121.084 54.7755 118.677 59.7744L118.566 59.8853L113.916 68.7877L113.908 68.8021C111.68 73.241 111.68 77.6039 113.908 82.0428L113.916 82.0572L118.985 91.762H119.048C121.091 96.5687 121.091 101.989 119.048 106.796H118.974L111.115 122.146L107.445 120.18L116.278 103.066H115.79C116.777 99.5768 116.399 96.0694 114.654 92.5941L114.647 92.5798L110.146 83.9642C107.43 78.5354 107.432 72.2936 110.153 66.8662L110.365 66.4432V66.3388L114.644 58.2706L114.654 58.2507C116.399 54.7755 116.777 51.268 115.79 47.7788H116.293L109.122 34.0189L103.942 36.4622L106.169 21.317L119.021 29.3493L112.989 32.2611L118.969 44.0492Z" fill="#DBA833"/>
</svg>
