<?xml version="1.0" standalone="no"?>
<!DOCTYPE svg PUBLIC "-//W3C//DTD SVG 20010904//EN"
 "http://www.w3.org/TR/2001/REC-SVG-20010904/DTD/svg10.dtd">
<svg version="1.0" xmlns="http://www.w3.org/2000/svg"
 width="292.000000pt" height="292.000000pt" viewBox="0 0 292.000000 292.000000"
 preserveAspectRatio="xMidYMid meet">
<metadata>
Created by potrace 1.14, written by Peter Selinger 2001-2017
</metadata>
<g transform="translate(0.000000,292.000000) scale(0.100000,-0.100000)"
fill="#000000" stroke="none">
<path d="M1416 2445 l-17 -55 -65 0 c-35 0 -64 -4 -64 -8 0 -5 20 -23 45 -41
24 -17 47 -36 50 -41 3 -5 -3 -31 -14 -56 -21 -47 -26 -74 -15 -74 4 0 29 17
56 37 35 25 54 34 63 27 7 -5 29 -22 49 -38 20 -16 39 -26 43 -22 3 3 -1 32
-10 63 -18 65 -15 71 44 105 22 12 38 27 36 32 -2 6 -31 12 -64 14 l-60 3 -19
54 c-10 30 -23 55 -29 55 -6 0 -19 -25 -29 -55z"/>
<path d="M1432 2178 c-7 -7 -12 -20 -12 -30 0 -10 -14 -61 -31 -114 -36 -111
-103 -230 -186 -328 -162 -190 -182 -220 -214 -306 -28 -76 -30 -93 -25 -157
13 -143 53 -230 149 -320 63 -60 124 -96 196 -117 62 -18 184 -21 250 -5 129
29 257 133 318 257 35 71 38 83 42 184 2 87 0 119 -15 156 -24 64 -90 160
-183 265 -116 133 -174 232 -227 388 -25 74 -46 135 -48 136 -1 2 -8 -3 -14
-9z"/>
<path d="M688 1953 l-3 -66 -49 -17 c-28 -9 -51 -21 -53 -26 -2 -6 21 -20 52
-33 46 -19 55 -27 56 -49 2 -24 4 -58 8 -101 2 -20 26 3 53 50 12 22 27 39 34
39 6 0 35 -10 63 -21 28 -12 54 -19 57 -16 3 3 -10 29 -30 59 -20 29 -36 56
-36 60 0 5 14 27 30 50 34 47 40 74 13 63 -10 -4 -37 -13 -61 -20 l-42 -13
-32 54 c-18 30 -38 54 -45 54 -8 0 -13 -22 -15 -67z"/>
<path d="M2132 1955 c-36 -50 -47 -52 -109 -29 -24 9 -46 14 -50 10 -4 -3 8
-27 25 -51 18 -25 32 -50 32 -55 0 -5 -14 -30 -32 -55 -17 -24 -29 -47 -26
-50 3 -4 31 1 63 10 31 9 58 15 59 13 1 -1 18 -24 36 -50 18 -27 37 -48 42
-48 4 0 8 29 8 64 l0 65 54 15 c30 9 57 20 60 25 4 5 -19 19 -49 32 l-54 22
-3 60 c-2 33 -7 62 -13 63 -5 2 -25 -17 -43 -41z"/>
<path d="M808 1697 c-14 -10 -15 -28 -7 -127 10 -132 -2 -301 -26 -371 -21
-61 -76 -125 -121 -139 -101 -34 -230 44 -343 208 -23 33 -41 35 -41 4 0 -16
29 -98 150 -427 81 -219 92 -245 106 -245 8 0 55 13 106 29 51 17 125 37 163
46 96 22 354 63 445 70 129 11 134 14 58 40 -91 31 -153 69 -211 128 -63 64
-88 106 -122 197 -24 64 -28 91 -29 179 0 73 3 106 12 109 23 7 12 56 -31 131
-24 42 -52 98 -62 124 -21 55 -27 61 -47 44z"/>
<path d="M2006 1618 c-25 -46 -56 -98 -70 -117 -20 -26 -23 -38 -16 -57 21
-54 30 -153 21 -236 -19 -195 -146 -350 -340 -419 l-75 -26 89 -7 c213 -17
446 -64 593 -120 52 -20 98 -36 104 -36 5 0 34 53 65 118 30 64 74 158 98 207
142 295 166 349 160 363 -4 10 -29 -8 -93 -69 -108 -105 -209 -161 -287 -163
-78 -1 -125 35 -173 132 -34 71 -37 83 -41 184 -2 87 1 129 19 204 34 150 14
166 -54 42z"/>
<path d="M135 1552 l7 -67 -58 -28 c-33 -16 -53 -32 -48 -37 5 -5 34 -15 64
-22 l55 -14 6 -58 c4 -32 11 -62 16 -67 5 -5 21 13 38 47 l30 56 40 -6 c22 -3
50 -9 63 -12 34 -10 27 11 -19 61 -38 41 -40 47 -27 63 24 26 49 82 43 92 -3
5 -30 -2 -60 -15 l-54 -24 -44 49 c-25 28 -48 50 -52 50 -4 0 -4 -30 0 -68z"/>
<path d="M2727 1572 l-47 -47 -52 27 c-28 15 -55 25 -59 22 -5 -3 4 -31 21
-63 l29 -58 -25 -24 c-14 -13 -35 -37 -47 -53 l-21 -29 52 7 c29 4 59 9 67 12
9 4 24 -13 45 -56 17 -34 34 -59 37 -56 3 3 11 34 17 68 l11 63 63 13 c34 8
62 17 62 22 0 4 -25 20 -55 35 l-55 28 6 41 c3 23 7 51 10 63 7 38 -11 33 -59
-15z"/>
<path d="M1255 654 c-241 -31 -332 -49 -511 -99 -125 -35 -184 -59 -184 -73 0
-4 4 -13 9 -21 7 -11 18 -10 65 8 80 30 360 99 475 117 151 24 509 30 667 10
124 -15 307 -61 428 -106 64 -25 76 -25 76 0 0 25 -11 30 -157 79 -202 67
-310 83 -593 86 -135 2 -258 1 -275 -1z"/>
</g>
</svg>
